<svg width="37" height="36" viewBox="0 0 37 36" fill="none" xmlns="http://www.w3.org/2000/svg">
<path d="M24.8399 18V17.9985C24.8398 16.6106 24.3586 15.2657 23.4781 14.1929C22.5977 13.1201 21.3725 12.3858 20.0113 12.115C18.6501 11.8442 17.2372 12.0538 16.0132 12.708C14.7892 13.3622 13.8298 14.4205 13.2987 15.7027C12.7675 16.9849 12.6973 18.4115 13.1001 19.7397C13.5028 21.0678 14.3536 22.2152 15.5075 22.9864C16.6614 23.7575 18.0469 24.1048 19.4281 23.9689C20.8093 23.833 22.1007 23.2225 23.0822 22.2413C23.6391 21.7029 24.0817 21.0579 24.3837 20.3446C24.6858 19.6314 24.8409 18.8645 24.8399 18.09L24.8384 17.9955V18H24.8399ZM28.0793 18C28.0721 20.1273 27.328 22.1864 25.9736 23.8269C24.6192 25.4674 22.7381 26.5878 20.6506 26.9975C18.5631 27.4073 16.3981 27.081 14.5241 26.0742C12.65 25.0675 11.1828 23.4424 10.372 21.4757C9.56116 19.5089 9.45693 17.3219 10.077 15.287C10.6971 13.252 12.0032 11.4948 13.7729 10.3143C15.5427 9.1339 17.6669 8.6032 19.7839 8.81255C21.9009 9.02191 23.88 9.95838 25.3843 11.4626C26.2386 12.2915 26.9175 13.2837 27.3807 14.3802C27.844 15.4767 28.082 16.6552 28.0808 17.8455L28.0793 18.009V18.0015V18ZM30.6094 8.3926V8.3956C30.6096 8.89525 30.4365 9.3795 30.1196 9.76584C29.8028 10.1522 29.3618 10.4167 28.8717 10.5143C28.3817 10.6119 27.873 10.5366 27.4323 10.3012C26.9916 10.0658 26.6461 9.68488 26.4548 9.22331C26.2634 8.76175 26.2381 8.24811 26.383 7.76994C26.5279 7.29176 26.8341 6.87863 27.2495 6.60093C27.6649 6.32323 28.1637 6.19815 28.6609 6.24701C29.1582 6.29586 29.6231 6.51563 29.9765 6.86885C30.3605 7.24529 30.5989 7.7702 30.5989 8.35061V8.3941V8.3926H30.6094ZM18.8514 3.23346L17.0592 3.22146C15.9734 3.21346 15.149 3.21346 14.5861 3.22146C14.0232 3.22946 13.2693 3.25296 12.3245 3.29195C11.4471 3.32195 10.6148 3.40893 9.8004 3.54691L9.90988 3.53191C9.27248 3.63689 8.70708 3.78687 8.16567 3.98634L8.23016 3.96534C7.46529 4.27281 6.76974 4.73033 6.18452 5.31091C5.5993 5.89149 5.13627 6.58338 4.82273 7.34577L4.80773 7.38627C4.61523 7.91315 4.47263 8.45695 4.3818 9.0105L4.3743 9.06599C4.24091 9.85404 4.16124 10.6502 4.13584 11.4491L4.13434 11.4806C4.09535 12.4264 4.07185 13.1803 4.06385 13.7422C4.05585 14.3041 4.05585 15.1285 4.06385 16.2153C4.07185 17.3021 4.07585 17.8995 4.07585 18.0075C4.07585 18.1155 4.07185 18.7129 4.06385 19.7997C4.05585 20.8865 4.05585 21.7109 4.06385 22.2728C4.07185 22.8347 4.09535 23.5886 4.13434 24.5344C4.16434 25.4118 4.25132 26.2441 4.3893 27.0585L4.3743 26.949C4.47928 27.5864 4.62926 28.1518 4.82873 28.6932L4.80773 28.6287C5.1152 29.3936 5.57272 30.0891 6.1533 30.6744C6.73388 31.2596 7.42577 31.7226 8.18816 32.0362L8.22866 32.0512C8.70558 32.2296 9.27098 32.3796 9.85289 32.4771L9.90838 32.4846C10.6118 32.6076 11.4441 32.6945 12.29 32.723L12.3215 32.7245C13.2673 32.7635 14.0212 32.787 14.5831 32.795C15.145 32.803 15.9694 32.803 17.0562 32.795L18.8379 32.759L20.6301 32.771C21.7159 32.779 22.5403 32.779 23.1032 32.771C23.6661 32.763 24.42 32.7395 25.3648 32.7005C26.2422 32.6706 27.0745 32.5836 27.8889 32.4456L27.7794 32.4606C28.4168 32.3556 28.9822 32.2056 29.5236 32.0062L29.4591 32.0272C30.224 31.7197 30.9195 31.2622 31.5048 30.6816C32.09 30.101 32.553 29.4091 32.8665 28.6467L32.8815 28.6062C33.06 28.1293 33.21 27.5639 33.3075 26.982L33.315 26.9265C33.438 26.2231 33.5249 25.3908 33.5534 24.5449L33.5549 24.5134C33.5939 23.5676 33.6174 22.8137 33.6254 22.2518C33.6334 21.6899 33.6334 20.8655 33.6254 19.7787C33.6174 18.6919 33.6134 18.0945 33.6134 17.9865C33.6134 17.8785 33.6174 17.2811 33.6254 16.1943C33.6334 15.1075 33.6334 14.2831 33.6254 13.7212C33.6174 13.1593 33.5939 12.4054 33.5549 11.4596C33.5249 10.5822 33.438 9.74987 33.3 8.93551L33.315 9.04499C33.2198 8.45035 33.0677 7.86625 32.8605 7.30078L32.8815 7.36527C32.5741 6.60041 32.1166 5.90486 31.536 5.31964C30.9554 4.73442 30.2635 4.27138 29.5011 3.95784L29.4606 3.94284C28.9337 3.75034 28.3899 3.60774 27.8364 3.51691L27.7809 3.50941C26.9933 3.37609 26.1976 3.29642 25.3993 3.27095L25.3678 3.26945C24.422 3.23046 23.6681 3.20697 23.1062 3.19897C22.5443 3.19097 21.7199 3.19097 20.6331 3.19897L18.8514 3.23346ZM36.8379 18C36.8379 21.5774 36.7979 24.0535 36.7179 25.4283C36.7888 26.8215 36.5662 28.2141 36.0644 29.5158C35.5627 30.8175 34.7931 31.9993 33.8055 32.9845C32.8178 33.9697 31.6342 34.7365 30.3313 35.235C29.0283 35.7336 27.6352 35.9528 26.2422 35.8785L26.2661 35.88C24.8914 35.96 22.4153 36 18.8379 36C15.2605 36 12.7844 35.96 11.4096 35.88C10.0164 35.9509 8.6238 35.7283 7.3221 35.2266C6.0204 34.7248 4.83864 33.9552 3.8534 32.9676C2.86816 31.9799 2.10142 30.7963 1.60287 29.4934C1.10432 28.1905 0.885085 26.7973 0.95937 25.4043L0.957871 25.4283C0.877884 24.0535 0.837891 21.5774 0.837891 18C0.837891 14.4226 0.877884 11.9465 0.957871 10.5717C0.88698 9.1785 1.10961 7.78591 1.61133 6.48421C2.11305 5.18251 2.88267 4.00075 3.87032 3.01551C4.85796 2.03027 6.0416 1.26353 7.34451 0.764978C8.64743 0.266429 10.0406 0.047194 11.4336 0.12148L11.4096 0.11998C12.7844 0.0399933 15.2605 0 18.8379 0C22.4153 0 24.8914 0.0399933 26.2661 0.11998C27.6594 0.049089 29.052 0.271718 30.3537 0.77344C31.6554 1.27516 32.8371 2.04478 33.8224 3.03243C34.8076 4.02007 35.5744 5.20371 36.0729 6.50662C36.5715 7.80954 36.7907 9.20267 36.7164 10.5957L36.7179 10.5717C36.7979 11.9455 36.8379 14.4216 36.8379 18Z" fill="black"/>
</svg>
