<svg width="18" height="33" viewBox="0 0 18 33" fill="none" xmlns="http://www.w3.org/2000/svg">
<path fill-rule="evenodd" clip-rule="evenodd" d="M1.98337 4.59998C1.98337 3.50461 2.87134 2.61664 3.96671 2.61664H5.02132C5.10916 2.95679 5.2866 3.27059 5.53925 3.52324C5.9112 3.89518 6.41567 4.10414 6.94168 4.10414H10.9084C11.4344 4.10414 11.9388 3.89518 12.3108 3.52324C12.5634 3.27059 12.7409 2.95679 12.8287 2.61664H13.8834H13.8834C14.9788 2.61664 15.8667 3.50461 15.8667 4.59998V28.4C15.8667 29.4954 14.9788 30.3834 13.8834 30.3834H3.96671C2.87134 30.3834 1.98337 29.4954 1.98337 28.4V4.59998ZM13.8834 0.633301H13.8834C16.0741 0.633301 17.8501 2.40924 17.8501 4.59998V28.4C17.8501 30.5908 16.0741 32.3667 13.8834 32.3667H3.96671C1.77597 32.3667 3.06368e-05 30.5908 3.06368e-05 28.4V4.59998C3.06368e-05 2.40924 1.77597 0.633301 3.96671 0.633301" fill="white"/>
</svg>
