<svg width="36" height="36" viewBox="0 0 36 36" fill="none" xmlns="http://www.w3.org/2000/svg">
<path d="M30.6022 5.23359C28.9517 3.56787 26.9863 2.24728 24.8203 1.34877C22.6544 0.450258 20.3313 -0.00819959 17.9864 0.000110993C8.16072 0.000110993 0.153 8.00559 0.144 17.8336C0.144 20.9813 0.967497 24.0435 2.52224 26.7548L0 36L9.45897 33.5205C12.0757 34.9446 15.0073 35.691 17.9864 35.6917H17.9954C27.8234 35.6917 35.8289 27.6863 35.8379 17.8493C35.8401 15.5049 35.3785 13.1832 34.4795 11.0181C33.5805 8.85287 32.262 6.88696 30.5999 5.23359H30.6022ZM17.9864 32.6723C15.3292 32.6732 12.7208 31.9581 10.4355 30.6023L9.89547 30.2783L4.28399 31.7498L5.78248 26.2755L5.43148 25.7108C3.94605 23.349 3.16045 20.6146 3.16574 17.8246C3.16574 9.66608 9.81897 3.0106 17.9954 3.0106C19.9434 3.00711 21.8727 3.38922 23.6722 4.1349C25.4718 4.88059 27.1059 5.9751 28.4804 7.35534C29.8597 8.73019 30.9532 10.3645 31.6977 12.1641C32.4423 13.9637 32.8232 15.8928 32.8184 17.8403C32.8094 26.028 26.1562 32.6723 17.9864 32.6723ZM26.1202 21.5708C25.6769 21.348 23.4877 20.2703 23.0759 20.1173C22.6664 19.9711 22.3672 19.8946 22.0747 20.34C21.7754 20.7833 20.9204 21.7935 20.6639 22.0838C20.4074 22.383 20.1419 22.4168 19.6964 22.1963C19.2532 21.9713 17.8154 21.5033 16.1145 19.9801C14.787 18.7988 13.8982 17.3363 13.6327 16.8931C13.3762 16.4476 13.608 16.2091 13.8307 15.9863C14.0265 15.7883 14.274 15.4643 14.4967 15.2078C14.7217 14.9513 14.796 14.7623 14.9422 14.4653C15.0885 14.1638 15.0187 13.9073 14.9085 13.6846C14.796 13.4618 13.9072 11.2636 13.5315 10.3771C13.1715 9.50183 12.8047 9.62333 12.5302 9.61208C12.2737 9.59633 11.9745 9.59633 11.6752 9.59633C11.4492 9.60195 11.2269 9.65421 11.022 9.74985C10.8172 9.84549 10.6344 9.98243 10.485 10.1521C10.0755 10.5976 8.93022 11.6753 8.93022 13.8736C8.93022 16.0718 10.5277 18.1846 10.7527 18.4838C10.9732 18.7831 13.8892 23.2808 18.3644 25.2158C19.4219 25.677 20.2544 25.9493 20.9047 26.1563C21.9734 26.4983 22.9387 26.4465 23.7082 26.3363C24.5632 26.2058 26.3429 25.2563 26.7187 24.2145C27.0877 23.1705 27.0877 22.2795 26.9752 22.0928C26.8649 21.9038 26.5657 21.7935 26.1202 21.5708Z" fill="black"/>
</svg>
